<svg version="1.2" xmlns="http://www.w3.org/2000/svg" viewBox="0 0 426 199" width="426" height="199"><style>.a{fill:#da1f26}.b{fill:#6d6e71}</style><path fill-rule="evenodd" class="a" d="m327 73.5c-0.8 2.1-1.1 4.2-1.1 6.7 0 4 6.6 6.7 16.5 6.7 11.8 0 24.6-3.5 39.4-10.8q0.5-0.2 1.1-0.2 0.1 0 0.3 0 0.2 0 0.4 0.1 0.1 0 0.3 0.1 0.1 0 0.3 0.1l3.2 2.1q0.3 0.1 0.5 0.4 0.3 0.2 0.4 0.5 0.2 0.3 0.2 0.6 0.1 0.3 0.1 0.6 0 0.3-0.1 0.6-0.1 0.3-0.2 0.6-0.2 0.3-0.4 0.5-0.3 0.2-0.5 0.4c-19.3 10.9-36 15.8-54 15.8-28.9 0-31.1-14.2-31.1-18.5 0-10.1 8-20.8 22-29.3 13.8-8.4 31.1-13.3 47.4-13.3 4.4 0 10.8 0.4 16 1.9 7.7 2.3 9.3 6.2 9.3 9.1 0 19.4-48.4 24.1-70 25.3zm4.2-8.2c21.3-1.4 42.2-7.5 42.2-16.7 0-0.4-0.1-0.9-1.2-1.5-1.3-0.7-3.3-1.1-5.8-1.1-15.2 0-29.5 12.2-35.2 19.3zm-197.5 0.8q0.2 0.5 0.2 0.9 0 0.5-0.2 1-0.1 0.4-0.3 0.8l-4.1 7.3q-0.3 0.5-0.6 0.8-0.4 0.4-0.8 0.6-0.4 0.3-0.9 0.4-0.4 0.1-0.9 0.1h-35.1l-56.1 107q-0.2 0.4-0.5 0.7-0.3 0.3-0.7 0.6-0.3 0.2-0.7 0.4-0.4 0.2-0.8 0.2l-20.9 3.2q-0.5 0.1-0.9 0.1-0.4-0.1-0.9-0.2-0.4-0.2-0.8-0.4-0.3-0.2-0.6-0.5l-1.1-1.1q-0.4-0.4-0.6-0.9-0.3-0.5-0.3-1-0.1-0.6-0.1-1.1 0.1-0.6 0.3-1.1l50.3-105.9h-25q-0.5 0-0.9-0.1-0.5-0.1-0.9-0.4-0.4-0.2-0.7-0.5-0.4-0.3-0.6-0.7-0.3-0.4-0.4-0.9-0.2-0.4-0.2-0.9 0-0.5 0.1-0.9 0.1-0.5 0.3-0.9l3.8-7.3c0.6-1.2 1.9-2 3.3-2h27.9c9.6-17.2 19-33.6 52-48.5 9.3-4.3 24.2-8.9 38.2-8.9 11.2 0 17.7 3.4 17.7 9.3 0 2.4-1.3 5.3-3.4 7.7-2.7 2.9-6.2 4.6-9.9 4.6-3.5 0-7-0.9-10.7-1.8-3.5-0.9-7.2-1.8-10.9-1.8-18.9 0-24 10.7-28.5 20.2l-9.4 19.2h31.8q0.5 0 0.9 0.1 0.5 0.2 0.9 0.4 0.4 0.2 0.8 0.6 0.3 0.3 0.6 0.7 0.2 0.4 0.3 0.9z"/><path fill-rule="evenodd" class="a" d="m299.6 78.7q0.3 0.2 0.4 0.5 0.2 0.3 0.2 0.6 0.1 0.3 0.1 0.6 0 0.3-0.1 0.6-0.1 0.3-0.2 0.6-0.2 0.3-0.4 0.5-0.3 0.2-0.5 0.4c-19.3 10.9-36 15.8-54 15.8-28.9 0-31.1-14.2-31.1-18.5 0-21.1 35-42.6 69.4-42.6 7.6 0 25.3 1.1 25.3 11 0 19.4-48.4 24.1-70 25.3-0.8 2-1.1 4.2-1.1 6.7 0 4 6.6 6.7 16.5 6.7 11.8 0 24.6-3.5 39.4-10.8q0.2-0.1 0.6-0.2 0.3-0.1 0.6 0 0.3 0 0.6 0.1 0.3 0.1 0.6 0.2l3.2 2.1q0.3 0.1 0.5 0.4zm-56.7-13.4c21.3-1.4 42.2-7.5 42.2-16.7 0-1.5-3-2.6-7-2.6-15.2 0-29.5 12.2-35.2 19.3z"/><path class="a" d="m215.8 56.2c-1.4-0.1-2.8-0.2-4.1-0.2-14.4 0-30 21.3-38 33.9-4 7.3-4.2 7.6-4.2 7.6-1 1.9-3.5 2.2-10.5 2.2-0.1 0-9.9-0.1-9.9-4.6 0-1.1 0.5-1.9 0.7-2.3 0.2-0.3 18.4-32.8 18.4-32.9 1.3-2 2.4-4.6 2.5-5.6q-0.1 0-0.1-0.1 0 0 0 0 0-0.1-0.1-0.1 0 0 0 0c-0.2-0.2-0.7-0.5-1.8-0.5-5.8 0-15.3 5.8-18.1 7.6q-0.3 0.2-0.7 0.3-0.3 0.1-0.7 0.1-0.4 0-0.7-0.2-0.4-0.1-0.7-0.3l-3-2c-0.7-0.4-1.1-1.2-1.1-2q0-0.3 0.1-0.5 0-0.3 0.2-0.6 0.1-0.3 0.3-0.5 0.2-0.2 0.4-0.4c6-4.6 24.4-16.4 36.6-16.4 9.9 0 12 3.8 12 7 0 1.1-0.3 2.9-2.6 7.3l-2.3 4.1c14.3-12.2 25.9-18.4 34.5-18.4 8.4 0 9.7 4 9.7 6.5 0 3.9-3.6 11.2-12.3 11.2-1.5 0-3-0.1-4.5-0.2z"/><path fill-rule="evenodd" class="b" d="m188 146.6v22.3c0 1-0.7 1.7-1.7 1.7h-6.6c-1 0-1.7-0.7-1.7-1.7v-22.3c-0.1-7.7-6.4-14-14.2-14-7.8 0-14.1 6.3-14.1 14v22.5c0 1-0.8 1.7-1.8 1.7h-6.6c-0.9 0-1.7-0.7-1.7-1.7v-22.3c0-7.7-6.4-14-14.2-14-7.8 0-14.1 6.3-14.1 14v22.3c0 1-0.8 1.7-1.8 1.7h-6.5c-1 0-1.8-0.7-1.8-1.7v-22.3c0-13.2 10.9-24 24.2-24 7.6 0 14.6 3.5 19.1 9.3 4.6-6 11.6-9.5 19.3-9.5 13.4 0 24.2 10.8 24.2 24zm51.7 0.1v0.1q0 0 0 0.1c-0.1 13.1-10.9 23.8-24.2 23.8-13.2 0-24.1-10.7-24.2-23.8q0-0.1 0-0.1v-0.1q0-0.1 0-0.1c0.1-13.2 11-23.8 24.2-23.8 13.3 0 24.1 10.6 24.2 23.7q0 0.1 0 0.2zm-10 0c0-7.7-6.4-13.9-14.2-13.9-7.8 0-14.1 6.2-14.1 13.9 0 7.7 6.3 14 14.1 14 7.8 0 14.2-6.3 14.2-14zm62.3 0q0 0 0 0.1 0 0 0 0.1c-0.1 13.1-11 23.8-24.2 23.8-13.3 0-24.1-10.7-24.3-23.8q0-0.1 0-0.1 0 0 0-0.1 0 0 0 0 0-0.1 0-0.1 0-0.1 0.1-0.2-0.1-0.1-0.1-0.2v-31.9c0-0.9 0.8-1.7 1.8-1.7h6.6c0.9 0 1.7 0.8 1.7 1.7v13c4.1-2.9 9-4.5 14.2-4.5 13.2 0 24 10.6 24.2 23.7q0 0.1 0 0.2zm-10.1 0c0-7.7-6.4-13.9-14.1-13.9-7.8 0-14.2 6.2-14.2 13.9 0 7.7 6.4 14 14.2 14 7.7 0 14.1-6.3 14.1-14zm57.3 14.1q0.3 0.2 0.5 0.4 0.3 0.3 0.4 0.6 0.1 0.3 0.1 0.6v6.6q0 0.1 0 0.3 0 0.2-0.1 0.3 0 0.2-0.1 0.3-0.1 0.2-0.3 0.3-0.1 0.1-0.2 0.2-0.2 0.1-0.3 0.2-0.2 0-0.4 0.1-0.1 0-0.3 0c-13.2-0.1-24-10.7-24.1-23.8q0-0.1 0-0.1v-0.1q0-0.1 0-0.1 0-0.1 0-0.2 0-0.1 0-0.2v-31.9c0-0.9 0.8-1.7 1.7-1.7h6.6c1 0 1.7 0.8 1.7 1.7v31.7q0.1 0.1 0.1 0.2 0 0.1 0 0.2-0.1 0.2-0.1 0.3c0.1 7.7 6.4 14 14.1 14q0.4 0 0.7 0.1zm-32.2-30.1v38.4c0 1-0.7 1.7-1.7 1.7h-6.6c-0.9 0-1.7-0.7-1.7-1.7v-38.4c0-1 0.8-1.8 1.7-1.8h6.6c1 0 1.7 0.8 1.7 1.8zm0.4-13.1c0 2.9-2.3 5.2-5.2 5.2-2.9 0-5.2-2.3-5.2-5.2 0-2.8 2.3-5.2 5.2-5.2 2.9 0 5.2 2.4 5.2 5.2zm44.4 30.4c0.6 7.1 6.7 12.7 14.1 12.7 5 0 9.7-2.7 12.2-7 0.3-0.5 0.9-0.8 1.5-0.8h7.3c0.9 0 1.7 0.7 1.7 1.7q0 0.1 0 0.2 0 0.1 0 0.1 0 0.1-0.1 0.2 0 0.1 0 0.2c-3.6 9.2-12.7 15.4-22.6 15.4-13.3 0-24.1-10.7-24.3-23.8q0-0.1 0-0.1v-0.1q0-0.1 0-0.1c0.2-13.2 11-23.8 24.3-23.8 6.3 0 12.3 2.4 16.9 6.8 4.5 4.4 7.1 10.3 7.3 16.6q0 0.2-0.1 0.3 0 0.2-0.1 0.4 0 0.1-0.1 0.3-0.1 0.1-0.2 0.2c-0.4 0.4-0.8 0.6-1.3 0.6h-3.5c0 0-33 0-33 0zm3-10h22.1c-2.7-3.3-6.7-5.2-11-5.2-4.4 0-8.4 1.9-11.1 5.2z"/></svg>