<svg version="1.2" xmlns="http://www.w3.org/2000/svg" viewBox="0 0 500 200" width="500" height="200"><style>.a{fill:#f27c00}.b{fill:#095ca0}</style><path fill-rule="evenodd" class="a" d="m101.4 186.6c-16.9-2.8-43.2-8.4-44.6-9.6-1.4-1.1-1.2-3.4 0.2-4 0.7-0.3 5 0 9.6 0.6 100.4 13.2 177.7 10.6 231.4-7.8 50.2-17.2 74-48.4 67.2-87.8-2.5-14.2-9.1-26.3-20.4-37.7-10.9-11.1-24.6-19-45.3-26.2-7.6-2.6-10.6-4.1-10.8-5.1-0.3-1.2 0.4-1.3 5.6-1.3 7.3 0 21 1.8 32 4.3 37.8 8.4 65.2 25.8 77.3 49.1 1.3 2.4 3.3 4.9 4.4 5.6 4.3 2.4 20.5 24.7 20.5 28.1 0 1.2-1.4 4.2-3.2 6.8-5.6 8.2-16 20.8-17.9 21.7-1 0.5-2.6 2.3-3.5 4-2.9 5.8-7.8 12.4-13.9 18.8-26.1 27.4-75.6 45-138.8 49.1-44.3 2.9-97.3-0.1-149.8-8.6zm323.9-39.2c-0.6 0-3.5-3.3-9.7-10.9-1.1-1.4-2.1-3-2.1-3.6 0-0.6 2.5-4.2 5.6-8 3-3.8 7.3-9.7 9.6-13 4.3-6.4 6-7.3 8-4.3 2 3.1 5.9 13.2 5.9 15.4 0 2.4-6.9 13.2-12.8 20-2.1 2.4-4.1 4.4-4.5 4.4zm19.5-38c-0.7-2.3-2.1-6.4-3.2-9.2l-2-5.1 3.1-7.9c4.5-11.4 4.5-11.4 5.4-11.4 1.2 0 3 4.7 4.9 12.4 1.5 6.1 1.6 6.7 0.4 11.4-0.7 2.7-2 6.9-2.9 9.4-2.3 6-4 6.1-5.7 0.4zm-16.3-31.2c-1.9-2.8-5.4-7.6-7.8-10.5-5.4-6.7-7.2-9.2-7.2-10.4 0-1.1 10.9-14.4 11.8-14.4 2.3 0 17.3 21.1 17.3 24.4 0 1.8-2.5 8.5-5.5 15-2 4.3-3.6 3.6-8.6-4.1z"/><path fill-rule="evenodd" class="b" d="m262.8 133.9c-5.9-2.8-9.7-9.8-8.5-15.4 1.5-7.7 7.3-12.4 15.2-12.4 4.6 0 6.7 1.4 6.3 4.6-0.2 1.7-0.6 2-2.6 1.9-3.5-0.3-7.2 1.1-8.6 3.3-2.1 3.1-1.7 7.7 0.8 10.2 2.2 2.1 2.6 2.2 7.4 2.4 2.3 0 2.8 0.3 3 2.1 0.1 1.1-0.2 2.5-0.6 3.1-1.1 1.8-8.6 1.9-12.4 0.2zm29.7-0.4c-6.1-3.1-8.9-10-7.1-17 2.3-8.5 11.8-13 19.2-9.2 1.9 1 2.9 1.1 4 0.4 0.8-0.5 3-0.9 5-0.9h3.5v27.7h-3.8c-2.4 0-4.2-0.4-4.8-1.1-0.8-1-1.3-1-4.1 0.4-4 2-7.5 1.9-11.9-0.3zm12.7-6.5c6.7-3.4 3.9-13.9-3.8-13.9-4.3 0-7.2 3-7.2 7.6 0 2.8 0.4 3.7 2.4 5.4 2.8 2.3 5.3 2.6 8.6 0.9zm-167 7.5h-4.3c-2.4 0-4.5-0.2-4.7-0.6-0.4-0.8 14.6-40 15.6-40.7 1.5-1 9.8-0.7 10.6 0.4 0.9 1.2 15.3 38.9 15.3 40.1 0 0.6-1.6 0.8-4.5 0.7-4.6-0.3-4.7-0.3-6.1-3.4-0.8-1.8-1.9-3.5-2.4-3.8-0.5-0.4-4.2-0.5-8.4-0.4l-7.5 0.2zm11.6-14.2c6 0 6.4-0.9 3.7-8.3-3-8.3-4.1-8.4-6.9-0.8-2.1 6-2.4 7.7-1.5 8.6 0.3 0.3 2.4 0.5 4.7 0.5zm39.7 14.3h-7.7v-9.4c0-7.6-0.2-9.7-1.2-10.7-0.7-0.7-1.6-1.2-2-1.2-0.4 0-0.7-1.4-0.7-3 0-2.4 0.4-3.2 1.7-3.8 1.6-0.7 1.9-1.6 2.2-5.9 0.5-6.2 2-8.9 6.3-11.1 5.9-2.9 9.5-2 9.5 2.4 0 2.7-0.2 3.1-1.8 3.1-3.3 0-5.2 2.4-5.4 6.6-0.1 4.4 0.4 5.1 4.1 5.4 2.5 0.3 2.8 0.5 3 3.2 0.2 2.8 0.1 2.8-3 3.3-1.8 0.2-3.5 0.6-3.8 0.9-0.3 0.3-0.7 4.9-0.8 10.4zm24.5-0.1h-3.9c-2.4 0-4-0.4-4.2-1.1-0.3-0.6-0.3-6.7-0.2-13.6l0.2-12.6 4.1-0.2c3.4-0.2 4.2 0 4.2 1 0 2.1 2 2.1 5.2 0 4.4-3 6.2-2.4 6.5 1.8l0.2 3.3h-3.1c-2.4 0-3.8 0.6-5.9 2.3-2.5 2.3-2.5 2.3-2.8 10.7zm29.4 0h-3.9c-2.5 0-4.1-0.4-4.4-1-0.2-0.6-0.2-6.8-0.1-13.7l0.2-12.6 8.2-0.5zm164.1-13.5c-1.4 0.7-2.9-0.7-13.1-11.9-6.4-6.9-11.6-13.3-11.6-14.2 0-1.9 22.9-27.7 24.6-27.7 2.2 0 20.5 24.3 20.5 27.1 0 1.4-7.2 11.6-14 19.9-2.7 3.3-5.6 6.3-6.4 6.8zm-172.7-26.9c0-5 7.3-6.1 9-1.4 0.5 1.6 0.4 2.6-0.6 4.1-2.6 4-8.4 2.1-8.4-2.7zm-21-12.8c-5.3 0.2-6.9 0-9.7-1.5-4.5-2.2-7.5-6.6-7.9-11.7-0.5-5.2 0.8-8.9 4.5-12.1 6.8-6.2 18.4-6.1 24.8 0.1 3.3 3.1 4.5 5.8 4.5 10.3 0 5.4-2.3 9.8-6.5 12.5-2.7 1.8-4.2 2.2-9.7 2.4zm6.8-14.6c0-3.7-1.5-6-4.8-7.3-3-1.2-5.9-0.5-8.4 1.9-3.4 3.4-2.1 10.6 2.3 12.3 5.4 2.2 10.9-1.2 10.9-6.9zm39.1 14.6c-3.5 0.1-7.2-0.2-8.2-0.6-10.7-4.5-13.1-17.6-4.6-25.1 8.4-7.3 23.9-4.5 28 5.1 2.7 6.4 0.4 14.4-5.5 18.2-2.8 1.9-4.1 2.2-9.7 2.4zm-0.8-6.9c4.2 0 7.5-3.5 7.5-7.7 0-3.7-1.4-6-4.6-7.3-7.8-3.2-14 6.7-8.1 12.7 1.7 1.7 3.1 2.3 5.2 2.3zm-118.8 5.9l-4.5 0.2c-4.3 0.2-4.6 0.1-4.6-1.5 0-2.1 6.4-39.6 6.9-40.4 0.2-0.3 2.3-0.6 4.6-0.6 5.3 0 5.3 0 10 12.8 2.5 6.8 3.8 9.4 4.8 9.4 0.7 0 1.5-0.6 1.8-1.4 0.3-0.8 2.1-5.4 3.8-10.1 1.8-4.8 3.5-9.2 4-9.7 0.9-1.2 9-1.4 9.7-0.2 0.7 1.1 7.3 40.6 7 41.3-0.2 0.3-2.3 0.6-4.6 0.6-5 0-4.2 1.5-6.7-14.2-1.8-12.9-2.6-12.7-8.6 2.1-4.2 10.2-5.1 11.7-6.6 11.7-1.6 0-2.4-1.5-6.5-11.7-2.8-7.1-5.1-11.6-5.8-11.6-0.6 0-1.1 0.1-1.2 0.2 0 0.1-0.8 5.3-1.8 11.6zm161.9 0.2c-1.7 0.1-3.2-0.2-3.7-0.8-1.1-1.4-13.7-26.1-13.7-27 0-0.3 2-0.5 4.6-0.3l4.5 0.2 3.3 6.8c1.9 3.6 3.9 6.7 4.6 6.9q1.2 0.3 4.8-6.9l3.6-7.2h4.3c3 0 4.4 0.3 4.4 1.1 0 0.5-3.1 6.8-7 13.9-6.8 12.9-6.9 13.1-9.7 13.3z"/></svg>