<svg version="1.2" xmlns="http://www.w3.org/2000/svg" viewBox="0 0 805 322" width="805" height="322"><style>.a{fill:#fff}.b{fill:#ffcb05}.c{fill:#f00}.d{fill:#00678f}</style><path class="a" d="m144.4 298.3c-45.9 0-89-5.8-124.9-16.8l-11.4-3.4v-232.2l11.4-3.4c35.9-11 79-16.8 124.9-16.8 45.9 0 89 5.8 124.9 16.8l11.4 3.4v232.2l-11.4 3.4c-35.9 11-79.1 16.8-124.9 16.8z"/><path class="b" d="m264.6 266.2c-33.6 10.3-75.2 16-120.2 16-45 0-86.6-5.7-120.2-16v-208.4c33.6-10.3 75.2-16 120.2-16 45 0 86.6 5.7 120.2 16 0 0 0 208.4 0 208.4z"/><path  d="m164.2 262.9q-1.9 0-3.7-0.7l-61.9-22.5c-3-1.1-5.4-3.3-6.8-6.2-1.3-2.9-1.5-6.2-0.4-9.2l53.1-145.9c1.8-5 6.5-8.1 11.8-7.9q1.8 0 3.6 0.7l62 22.5c3 1.1 5.4 3.3 6.7 6.2 1.4 2.9 1.5 6.2 0.4 9.2l-53.1 145.9c-1.8 4.9-6.5 8.1-11.7 7.9z"/><path class="a" d="m163.4 257.9q-0.6-0.1-1.2-0.3l-61.9-22.6c-1.8-0.6-3.2-1.9-4-3.6-0.8-1.7-0.9-3.7-0.2-5.4l53.1-146c1.2-3.2 4.5-5.1 7.8-4.5q0.7 0.1 1.2 0.3l62 22.6c1.7 0.6 3.2 1.9 4 3.6 0.8 1.7 0.8 3.6 0.2 5.4l-53.1 146c-1.2 3.2-4.5 5.1-7.9 4.5z"/><path  d="m133.5 240.2c-3.8-1.4-5.8-5.6-4.4-9.4 1.4-3.8 5.6-5.7 9.4-4.4 3.8 1.4 5.7 5.6 4.4 9.4-1.4 3.8-5.6 5.8-9.4 4.4z"/><path class="c" d="m130.8 149.7l58.4 35.2-15.6 43c-0.8 2.1-3.2 3.2-5.3 2.5l-55.1-20.1c-2.2-0.8-3.3-3.2-2.5-5.3z"/><path  d="m217 108.6l-26.2 71.9-58.4-35.2 21.7-59.6c0.8-2.1 3.2-3.2 5.3-2.5l55.1 20.1c2.2 0.8 3.3 3.1 2.5 5.3z"/><path class="a" d="m192.4 158.3c-0.7 23.7-7.1 53.8-8.1 54.5-0.6 0.3-1.1-0.6-1.5-1.5q-0.5 2.4-1.2 4.8h-1.3l-3.7 21.1-4.8 2.2c0 0 3-6.9-1.3-23.6-0.2-0.8-0.4-1.6-0.6-2.4-7.1-23.9-44.6-48-105.5-67.7l-3.2-1c-1.9-0.6-2.7-2.6-1.8-4.1l43.3-74.3c0.8-1.3 2.5-1.9 4.1-1.4l2.4 0.8c9.5 3 18.2 7.2 26.2 12.4l22.9-13.9c1.3-0.8 3.1-0.6 4.2 0.4l2.1 2.7 0.3 0.4c19.7 24.7 29 55.2 27.5 90.6z"/><path fill-rule="evenodd" class="d" d="m186.3 157.9c-4.8-31.8-19.3-58.6-44.9-76.8l18-10.8q0.2 0.2 0.5 0.4c19.3 24.2 27.7 53.6 26.4 87.2zm-78.6-87.2l-40.5 69.5c59.3 19.2 101.3 44.2 109.4 71.5q0.4 1.4 0.7 2.9 2.4-8.2 3.6-16.7c8.5-57.8-22.8-111-73.2-127.2z"/><path class="a" d="m119.2 149.6c-15.5-2-26.5-16.3-24.5-31.8 2-15.5 16.3-26.5 31.8-24.5 15.5 2.1 26.5 16.3 24.5 31.8-2.1 15.5-16.3 26.5-31.8 24.5z"/><path fill-rule="evenodd" class="d" d="m126.4 138.3v6.6h-5.6v-6.7c-5.1-0.7-9.6-2.7-12.2-4.9l2.4-4.5c2.7 1.7 6 3.4 10.2 3.9v-8.4c-6.4-1.2-11.4-3.4-11.4-9.5 0-5.5 3.9-9.4 11-10.1v-6.6h5.6v6.7c3.7 0.4 6.8 1.7 9 3v6.1c-3.1-2.1-6.1-3.2-9.4-3.7v8.2c5.7 1.1 11.1 3.5 11.1 9.8 0 5.6-3.9 9.4-10.7 10.1zm-5.2-20.7v-7.5c-3.4 0.3-5.6 1.5-5.6 3.8 0 2.4 2.3 3.1 5.6 3.7zm10.1 11.3c0-2.4-2-3.2-5.3-3.8v7.8c3.3-0.3 5.3-1.6 5.3-4z"/><path  d="m166.1 239.3c1.6 0.6 2.4 2.4 1.8 4l-1 2.9c-0.6 1.6-2.4 2.5-4 1.9l-15.3-5.6c-0.5-0.2-0.7-0.8-0.4-1.2q1.1-1.4 1.8-3.3 0.6-1.8 0.7-3.6c0.1-0.5 0.6-0.8 1.1-0.7z"/><path  d="m124.8 225.3q-1.1 1.5-1.8 3.3-0.7 1.8-0.8 3.6c0 0.5-0.5 0.9-1 0.7l-15.3-5.6c-1.6-0.6-2.5-2.3-1.9-4l1.1-2.9c0.6-1.6 2.4-2.4 4-1.9l15.3 5.6c0.5 0.2 0.7 0.8 0.4 1.2z"/><path class="a" d="m390.6 228.2v-97.6l-24.7 97.6h-41.7l37.9-151.2h60.6v88.1l39.9-88.1h62.5l-37.9 151.2h-39.8l22.7-97.6-47.4 97.6z"/><path class="c" d="m586.7 209.1l-5.8 21h-43.5l5.6-21z"/><path class="a" d="m634.9 228.2l37.9-151.2h43.6l19 80.4 20.8-80.4h39.8l-37.9 151.2h-41.7l-20.8-82.3-20.9 82.3z"/><path class="b" d="m527.9 115.3l9.5-38.3h123.2l-9.5 38.3h-39.8l-21.5 83.1h-43.5l21.4-83.1z"/></svg>