<svg version="1.2" xmlns="http://www.w3.org/2000/svg" viewBox="0 0 406 162" width="406" height="162"><style>.a{fill:#fff}.b{fill:#f08014}</style><path fill-rule="evenodd" class="a" d="m98.5 51v61c0 6.9-5.6 12.4-12.4 12.4-6.9 0-12.4-5.5-12.4-12.4v-31.1l-50.1 50.1c-4.8 4.9-12.7 4.9-17.5 0-4.9-4.8-4.9-12.7 0-17.5l50.1-50.1h-31.2c-6.8 0-12.3-5.6-12.3-12.4 0-6.9 5.5-12.4 12.3-12.4h61.1c6.8 0 12.4 5.5 12.4 12.4z"/><path fill-rule="evenodd" class="b" d="m109.3 111.5v-61.1c0-6.8 5.6-12.4 12.4-12.4 6.9 0 12.4 5.6 12.4 12.4v31.2l50.1-50.2c4.8-4.8 12.7-4.8 17.5 0 4.9 4.9 4.9 12.7 0 17.6l-50.1 50.1h31.1c6.9 0 12.4 5.6 12.4 12.4 0 6.9-5.5 12.4-12.4 12.4h-61c-6.8 0-12.4-5.5-12.4-12.4z"/><path fill-rule="evenodd" class="b" d="m249.6 75.8c-9.6 0-17.4-8.3-17.4-18.7 0-10.4 7.8-18.7 17.4-18.7 9.6 0 17.4 8.3 17.4 18.7 0 10.4-7.8 18.7-17.4 18.7zm0-6.6c7 0 9.6-6 9.6-12 0-6.2-2.6-12.2-9.6-12.2-7 0-9.6 6-9.6 12.2 0 6 2.6 12 9.6 12zm20-19.4h6.5v4.8h0.1c1.3-3.3 4.6-5.5 8-5.5 0.5 0 1 0.1 1.5 0.2v6.7c-0.7-0.2-1.7-0.3-2.5-0.3-5 0-6.7 3.8-6.7 8.4v11.7h-6.9zm19.6 7.8c0.4-6.5 6.7-8.5 12.9-8.5 5.4 0 12 1.1 12 7.2v13.2c0 2.3 0.3 4.6 1 5.7h-7.7c-0.2-0.8-0.5-1.6-0.5-2.5-2.4 2.3-5.9 3.2-9.2 3.2-5.2 0-9.4-2.4-9.4-7.6 0-5.8 4.7-7.2 9.4-7.8 4.6-0.6 8.9-0.4 8.9-3.3 0-3-2.3-3.4-4.9-3.4-2.9 0-4.7 1.1-5 3.8zm17.4 5.2c-1.3 1-3.9 1-6.3 1.4-2.3 0.5-4.4 1.2-4.4 3.8 0 2.6 2.2 3.2 4.6 3.2 5.9 0 6.1-4.3 6.1-5.8zm11.2-13h6.6v3.6h0.2c1.8-2.9 4.9-4.3 7.8-4.3 7.5 0 9.4 4.3 9.4 10.7v16.1h-7v-14.7c0-4.3-1.3-6.4-4.6-6.4-3.8 0-5.4 2.1-5.4 7.4v13.7h-7zm53.4 24.9c0 4.4-1.6 11.8-14 11.8-5.3 0-11.5-2.5-11.8-8.6h7.3c0.7 2.8 2.9 3.7 5.5 3.7 4.1 0 6-2.8 6-6.6v-3.5h-0.1c-1.7 2.8-4.9 4.1-8.1 4.1-8.1 0-11.5-6-11.5-13.4 0-6.9 4-13.1 11.5-13.1 3.6 0 6.3 1.1 8.1 4.2h0.1v-3.5h7zm-7-12.4c0-4.3-2.8-7.8-6.2-7.8-3.4 0-6.1 3.5-6.1 7.8 0 4.3 2.7 7.8 6.1 7.8 3.4 0 6.2-3.5 6.2-7.8zm17 1.8c0.2 4.4 2.5 6.4 6.6 6.4 2.9 0 5.3-1.7 5.8-3.3h6.5c-2.1 6-6.5 8.6-12.6 8.6-8.4 0-13.6-5.5-13.6-13.4 0-7.6 5.5-13.4 13.6-13.4 9.2 0 13.6 7.3 13 15.1zm12-4.4c-0.7-3.6-2.3-5.4-5.9-5.4-4.6 0-6 3.4-6.1 5.4zm-143.3 52.5h0.1l8.2-25.7h11.5v37.4h-7.6v-26.5h-0.2l-9.1 26.5h-6.3l-9.1-26.3h-0.1v26.3h-7.7v-37.4h11.6zm38.5 11.7c-7.4 0-13.3-6-13.3-13.4 0-7.4 5.9-13.4 13.3-13.4 7.4 0 13.4 6 13.4 13.4 0 7.4-6 13.4-13.4 13.4zm0-5.3c4.8 0 6.3-4.1 6.3-8.1 0-4.1-1.5-8.1-6.3-8.1-4.8 0-6.3 4-6.3 8.1 0 4 1.5 8.1 6.3 8.1zm16-20.8h6.7v3.7h0.2c1.8-3 4.8-4.4 7.8-4.4 7.5 0 9.4 4.3 9.4 10.7v16.1h-7.1v-14.7c0-4.3-1.2-6.4-4.5-6.4-3.8 0-5.4 2.1-5.4 7.4v13.7h-7.1zm34.1 14.3c0.2 4.4 2.5 6.5 6.6 6.5 2.9 0 5.3-1.8 5.8-3.3h6.5c-2.1 6-6.5 8.5-12.6 8.5-8.4 0-13.6-5.5-13.6-13.3 0-7.7 5.5-13.4 13.6-13.4 9.2 0 13.6 7.2 13 15zm12-4.4c-0.7-3.5-2.3-5.4-5.8-5.4-4.7 0-6.1 3.4-6.2 5.4zm23.3 18.3c-1.6 4.1-4 5.8-9 5.8q-2.2 0-4.3-0.2v-5.8c1.3 0.1 2.7 0.3 4.1 0.2 2.5-0.2 3.3-2.8 2.5-4.8l-9.2-24.1h7.7l5.9 17.6h0.1l5.7-17.6h7.4z"/></svg>