<svg version="1.2" xmlns="http://www.w3.org/2000/svg" viewBox="0 0 500 200" width="500" height="200"><style>.a{fill:#00579f}.b{fill:#faa61a}</style><path class="a" d="m216.7 178.5h-40.4l25.3-156.2h40.4z"/><path class="a" d="m357.8 59.8l-3.7-1.6c-7.3-3.2-16.9-6.3-30.1-6-15.9 0-23.1 6.8-23.3 13.5 0 7.3 8.7 12.1 22.8 19.3 23.3 11.1 34.1 24.7 34 42.5-0.4 32.4-28 53.4-70.4 53.4-18.1-0.2-35.6-4-45.1-8.3l5.7-35.1 5.3 2.5c13.1 5.8 21.8 8.3 37.9 8.3 11.7 0 24.1-4.8 24.3-15.3 0-6.8-5.3-11.8-20.9-19.5-15.3-7.4-35.8-19.9-35.5-42.4 0.2-30.4 28.3-51.6 68.2-51.6 15.7 0 28.3 3.4 36.3 6.6z"/><path fill-rule="evenodd" class="a" d="m499.5 178.5h-37.4c0 0-3.7-17.9-4.8-23.4-6 0-47.3 0-51.9 0-1.5 4.2-8.5 23.4-8.5 23.4h-42.4l60-143.3c4.2-10.1 11.5-12.9 21.1-12.9h31.3zm-48.9-55.4c-1.7-7.8-9.3-45.2-9.3-45.2l-2.8-13.5c-2 5.9-5.5 15.3-5.4 15 0 0-12.8 34.8-16.1 43.7 8 0 27.3 0 33.6 0z"/><path class="a" d="m185.3 22.3l-63.5 156.1h-42.8l-36.3-136.7c25.7 13.5 48.6 40.6 55.9 65.5l4.4 21.6 39.6-106.5z"/><path class="b" d="m84.5 35.4l14.1 71.8c-13.8-37.5-47.4-68.8-98.1-81.8l0.7-3.1h65c8.8 0.3 16 3.1 18.3 13.1z"/></svg>